<svg xmlns="http://www.w3.org/2000/svg" xmlns:xlink="http://www.w3.org/1999/xlink" width="750" height="750" viewBox="0 0 750 750"><defs><clipPath id="a"><rect width="750" height="750" transform="translate(619 217)" fill="rgba(255,255,255,0.1)" stroke="#707070" stroke-width="1"/></clipPath></defs><g transform="translate(-619 -217)" clip-path="url(#a)"><path d="M108.8,552.631a12.336,12.336,0,1,1,0,4.934H0v-4.934ZM503.536,671.053a12.336,12.336,0,1,1,0,4.934H202.3v-4.934Zm142.6-113.487a12.336,12.336,0,1,1,0-4.934H750v4.934Zm0,39.474a12.336,12.336,0,1,1,0-4.934H750v4.934Zm15.3-281.25a12.336,12.336,0,1,1,0,4.934H448.766a12.336,12.336,0,1,1,0-4.934ZM29.852,197.368a12.336,12.336,0,1,1,0,4.934H0v-4.934H29.852ZM488.24,281.25a12.336,12.336,0,1,1,0-4.934H700.9a12.336,12.336,0,1,1,0,4.934Zm148.273-251.4a12.336,12.336,0,1,1-4.934,0V0h4.934ZM478.618,543.01a12.336,12.336,0,1,1-4.934,0V409.293a12.335,12.335,0,1,1,4.934,0ZM597.039,54.03V197.368H750V202.3H592.105V54.03a12.336,12.336,0,1,1,4.934,0ZM636.513,93.5v64.391H750v4.934H631.579V93.5a12.335,12.335,0,1,1,4.934,0ZM320.724,330.345V513.158H360.2V543.01a12.336,12.336,0,1,1-4.934,0V518.092H315.789V330.345a12.336,12.336,0,1,1,4.934,0Zm-14.556-54.03a12.336,12.336,0,1,1,0,4.934H281.25V399.671H211.924a12.336,12.336,0,1,1,0-4.934h64.391V276.316h29.852Zm-15.3,320.724a12.336,12.336,0,1,1,0-4.934H434.21V409.293a12.336,12.336,0,1,1,4.934,0V597.039ZM251.4,439.145a12.335,12.335,0,1,1,0-4.934H281.25V552.631h24.918a12.336,12.336,0,1,1,0,4.934H276.316V439.145ZM162.829,700.9a12.336,12.336,0,1,1-4.934,0V675.987H123.355V750h-4.934V671.053h44.408ZM582.483,434.21a12.336,12.336,0,1,1,0,4.934H557.566V671.053H675.987V750h-4.934V675.987H552.631V434.21ZM646.135,360.2a12.336,12.336,0,1,1,0-4.934h29.852v108.8a12.336,12.336,0,1,1-4.934,0V360.2ZM488.24,597.039a12.336,12.336,0,1,1,0-4.934h24.918V394.737h39.474V360.2H448.766a12.335,12.335,0,1,1,0-4.934h108.8v44.408H518.092V597.039ZM700.9,78.947a12.336,12.336,0,1,1,0,4.934H671.053V0h4.934V78.947H700.9ZM241.776,251.4V360.2h-108.8a12.336,12.336,0,1,1,0-4.934H236.842V251.4a12.335,12.335,0,1,1,4.934,0ZM132.977,83.882a12.335,12.335,0,1,1,0-4.934h64.391V0H202.3V83.882ZM281.25,93.5v69.326H202.3V320.724H172.451a12.336,12.336,0,1,1,0-4.934h24.918V157.895h78.947V93.5a12.336,12.336,0,1,1,4.934,0ZM251.4,202.3a12.335,12.335,0,1,1,0-4.934h64.391V93.5a12.336,12.336,0,1,1,4.934,0V202.3ZM290.872,44.408a12.336,12.336,0,1,1,0-4.934H360.2v108.8a12.336,12.336,0,1,1-4.934,0V44.408ZM543.01,710.526a12.335,12.335,0,1,1,0,4.934H241.776V750h-4.934V710.526Zm54.03-340.707v24.918h39.474v83.882H597.039V631.579H715.46V750h-4.934V636.513H592.105V473.684h39.474V399.671H592.105V369.819a12.336,12.336,0,1,1,4.934,0ZM132.977,44.408a12.335,12.335,0,1,1,0-4.934h24.918V4.934H118.421V0h44.408V44.408Zm276.316,78.947a12.336,12.336,0,1,1,0-4.934h64.391V0H597.039V4.934H478.618V123.355ZM290.872,4.934A12.338,12.338,0,1,1,266.694,0H271.8a7.4,7.4,0,1,0,13.964,0h153.38V83.882H394.737V54.03a12.336,12.336,0,1,1,4.934,0V78.947H434.21V4.934H290.872Zm0,236.842a12.335,12.335,0,1,1,0-4.934h47.122l78.947-78.947h96.217V54.03a12.336,12.336,0,1,1,4.934,0v108.8h-99.1l-78.947,78.947H290.872ZM360.2,464.062a12.336,12.336,0,1,1-4.934,0V275.3L433.2,197.368H552.631V54.03a12.336,12.336,0,1,1,4.934,0V202.3H435.222L360.2,277.327Zm39.474,78.947a12.336,12.336,0,1,1-4.934,0v-245.5L455.4,236.842H740.378A12.335,12.335,0,0,1,750,227.22v5.107a7.4,7.4,0,0,0,0,13.964V251.4a12.335,12.335,0,0,1-9.622-9.622H457.426l-57.755,57.755ZM44.408,385.115a12.336,12.336,0,1,1-4.934,0v-8.66L157.895,258.035V118.421h78.947V0h4.934V123.355H162.829v136.7L44.408,378.479Zm78.947-252.138V240.321L4.934,358.742V513.158H69.326a12.336,12.336,0,1,1,0,4.934H0V356.719L118.421,238.3V132.977a12.335,12.335,0,1,1,4.934,0ZM83.882,172.451v48.133L0,304.465v-6.957l78.947-78.947v-46.11a12.336,12.336,0,1,1,4.934,0Zm-54.03-93.5a12.336,12.336,0,1,1,0,4.934H23.215L0,107.1v-6.933L21.192,78.947Zm655.756,44.408a12.336,12.336,0,1,1,0-4.934h46.11L750,100.14V107.1l-16.258,16.258ZM646.135,518.092a12.336,12.336,0,1,1,0-4.934h64.391V336.982L750,297.508v6.957L715.46,339V518.092ZM132.977,597.039a12.336,12.336,0,1,1,0-4.934h24.918V536.373L100.14,478.618H54.03a12.336,12.336,0,1,1,0-4.934h48.133l60.666,60.666v62.689H132.977Zm370.559,34.539a12.336,12.336,0,1,1,0,4.934H236.842V496.875l-97.2-97.2H93.5a12.336,12.336,0,1,1,0-4.934h48.109L241.776,494.9V631.579h261.76Zm-370.559,4.934a12.336,12.336,0,1,1,0-4.934h64.391V516.636l-77.492-77.492H54.03a12.336,12.336,0,1,1,0-4.934H121.9l80.4,80.4v121.9H132.977ZM83.882,98.191v3.972L23.215,162.829H0v-4.934H21.192L78.947,100.14V0h4.934ZM4.934,740.378A12.336,12.336,0,0,1,14.556,750H9.449A7.4,7.4,0,0,0,0,745.485V631.579H44.408V750H39.474V636.513H4.934ZM83.882,594.572V750H78.947V597.039H0v-4.934H83.882ZM41.941,44.408H0V39.474H39.474V0h4.934V44.408Zm673.52-4.934H750v4.934H710.526V0h4.934Zm-78.947,673.52V750h-4.934V715.46H597.039V750h-4.934V710.526h44.408ZM0,227.22a12.385,12.385,0,0,1,14.8,12.089A12.336,12.336,0,0,1,0,251.4v-5.107a7.4,7.4,0,1,0,0-13.964ZM197.368,671.053H202.3V750h-4.934ZM290.872,750h-5.107a7.4,7.4,0,0,0-13.964,0h-5.107a12.336,12.336,0,0,1,24.178,0ZM14.556,0A12.385,12.385,0,0,1,0,14.556V9.449A7.4,7.4,0,0,0,9.449,0ZM740.378,0h5.107A7.4,7.4,0,0,0,750,9.449v5.107A12.336,12.336,0,0,1,740.378,0ZM750,740.378v5.107A7.4,7.4,0,0,0,745.485,750h-5.107A12.335,12.335,0,0,1,750,740.378ZM239.309,246.71a7.4,7.4,0,1,0-7.4-7.4,7.4,7.4,0,0,0,7.4,7.4Zm0-39.474a7.4,7.4,0,1,0-7.4-7.4,7.4,7.4,0,0,0,7.4,7.4Zm39.474,39.474a7.4,7.4,0,1,0-7.4-7.4,7.4,7.4,0,0,0,7.4,7.4Zm39.474,39.474a7.4,7.4,0,1,0-7.4-7.4A7.4,7.4,0,0,0,318.257,286.184Zm0,39.474a7.4,7.4,0,1,0-7.4-7.4A7.4,7.4,0,0,0,318.257,325.658ZM199.835,404.605a7.4,7.4,0,1,0-7.4-7.4A7.4,7.4,0,0,0,199.835,404.605Zm39.474,39.474a7.4,7.4,0,1,0-7.4-7.4,7.4,7.4,0,0,0,7.4,7.4ZM318.257,562.5a7.4,7.4,0,1,0-7.4-7.4A7.4,7.4,0,0,0,318.257,562.5Zm-39.474,39.474a7.4,7.4,0,1,0-7.4-7.4A7.4,7.4,0,0,0,278.783,601.974ZM357.73,562.5a7.4,7.4,0,1,0-7.4-7.4A7.4,7.4,0,0,0,357.73,562.5Zm0-78.947a7.4,7.4,0,1,0-7.4-7.4A7.4,7.4,0,0,0,357.73,483.553ZM397.2,562.5a7.4,7.4,0,1,0-7.4-7.4A7.4,7.4,0,0,0,397.2,562.5Zm78.947,39.474a7.4,7.4,0,1,0-7.4-7.4A7.4,7.4,0,0,0,476.151,601.974Zm0-39.474a7.4,7.4,0,1,0-7.4-7.4A7.4,7.4,0,0,0,476.151,562.5ZM436.678,404.605a7.4,7.4,0,1,0-7.4-7.4A7.4,7.4,0,0,0,436.678,404.605Zm39.474,0a7.4,7.4,0,1,0-7.4-7.4A7.4,7.4,0,0,0,476.151,404.605Zm39.474,236.842a7.4,7.4,0,1,0-7.4-7.4A7.4,7.4,0,0,0,515.625,641.447Zm0,39.474a7.4,7.4,0,1,0-7.4-7.4A7.4,7.4,0,0,0,515.625,680.921ZM555.1,720.395a7.4,7.4,0,1,0-7.4-7.4A7.4,7.4,0,0,0,555.1,720.395Zm39.474-355.263a7.4,7.4,0,1,0-7.4-7.4A7.4,7.4,0,0,0,594.572,365.132Zm0,78.947a7.4,7.4,0,1,0-7.4-7.4A7.4,7.4,0,0,0,594.572,444.079Zm39.474-78.947a7.4,7.4,0,1,0-7.4-7.4A7.4,7.4,0,0,0,634.046,365.132Zm39.474-39.474a7.4,7.4,0,1,0-7.4-7.4A7.4,7.4,0,0,0,673.52,325.658Zm-236.842,0a7.4,7.4,0,1,0-7.4-7.4A7.4,7.4,0,0,0,436.678,325.658Zm0,39.474a7.4,7.4,0,1,0-7.4-7.4A7.4,7.4,0,0,0,436.678,365.132Zm39.474-78.947a7.4,7.4,0,1,0-7.4-7.4A7.4,7.4,0,0,0,476.151,286.184Zm236.842,0a7.4,7.4,0,1,0-7.4-7.4A7.4,7.4,0,0,0,712.993,286.184ZM673.52,128.289a7.4,7.4,0,1,0-7.4-7.4A7.4,7.4,0,0,0,673.52,128.289Zm39.474-39.474a7.4,7.4,0,1,0-7.4-7.4A7.4,7.4,0,0,0,712.993,88.816Zm-78.947,0a7.4,7.4,0,1,0-7.4-7.4A7.4,7.4,0,0,0,634.046,88.816Zm0-39.474a7.4,7.4,0,1,0-7.4-7.4A7.4,7.4,0,0,0,634.046,49.342Zm-39.474,0a7.4,7.4,0,1,0-7.4-7.4A7.4,7.4,0,0,0,594.572,49.342Zm-39.474,0a7.4,7.4,0,1,0-7.4-7.4A7.4,7.4,0,0,0,555.1,49.342Zm-39.474,0a7.4,7.4,0,1,0-7.4-7.4A7.4,7.4,0,0,0,515.625,49.342ZM120.888,88.816a7.4,7.4,0,1,0-7.4-7.4A7.4,7.4,0,0,0,120.888,88.816Zm-78.947,0a7.4,7.4,0,1,0-7.4-7.4A7.4,7.4,0,0,0,41.941,88.816Zm78.947,39.474a7.4,7.4,0,1,0-7.4-7.4A7.4,7.4,0,0,0,120.888,128.289ZM81.414,167.763a7.4,7.4,0,1,0-7.4-7.4A7.4,7.4,0,0,0,81.414,167.763ZM120.888,49.342a7.4,7.4,0,1,0-7.4-7.4A7.4,7.4,0,0,0,120.888,49.342Zm0,592.105a7.4,7.4,0,1,0-7.4-7.4A7.4,7.4,0,0,0,120.888,641.447Zm39.474,78.947a7.4,7.4,0,1,0-7.4-7.4A7.4,7.4,0,0,0,160.362,720.395ZM120.888,562.5a7.4,7.4,0,1,0-7.4-7.4A7.4,7.4,0,0,0,120.888,562.5Zm0,39.474a7.4,7.4,0,1,0-7.4-7.4A7.4,7.4,0,0,0,120.888,601.974ZM81.414,523.026a7.4,7.4,0,1,0-7.4-7.4,7.4,7.4,0,0,0,7.4,7.4ZM278.783,88.816a7.4,7.4,0,1,0-7.4-7.4A7.4,7.4,0,0,0,278.783,88.816Zm39.474,0a7.4,7.4,0,1,0-7.4-7.4A7.4,7.4,0,0,0,318.257,88.816ZM278.783,49.342a7.4,7.4,0,1,0-7.4-7.4A7.4,7.4,0,0,0,278.783,49.342ZM357.73,167.763a7.4,7.4,0,1,0-7.4-7.4A7.4,7.4,0,0,0,357.73,167.763ZM397.2,128.289a7.4,7.4,0,1,0-7.4-7.4A7.4,7.4,0,0,0,397.2,128.289Zm0-78.947a7.4,7.4,0,1,0-7.4-7.4A7.4,7.4,0,0,0,397.2,49.342ZM673.52,483.553a7.4,7.4,0,1,0-7.4-7.4A7.4,7.4,0,0,0,673.52,483.553Zm-39.474,39.474a7.4,7.4,0,1,0-7.4-7.4,7.4,7.4,0,0,0,7.4,7.4Zm0,39.474a7.4,7.4,0,1,0-7.4-7.4A7.4,7.4,0,0,0,634.046,562.5Zm0,39.474a7.4,7.4,0,1,0-7.4-7.4A7.4,7.4,0,0,0,634.046,601.974ZM41.941,444.079a7.4,7.4,0,1,0-7.4-7.4A7.4,7.4,0,0,0,41.941,444.079Zm0,39.474a7.4,7.4,0,1,0-7.4-7.4A7.4,7.4,0,0,0,41.941,483.553Zm0-78.947a7.4,7.4,0,1,0-7.4-7.4A7.4,7.4,0,0,0,41.941,404.605Zm39.474,0a7.4,7.4,0,1,0-7.4-7.4A7.4,7.4,0,0,0,81.414,404.605ZM41.941,207.237a7.4,7.4,0,1,0-7.4-7.4A7.4,7.4,0,0,0,41.941,207.237Zm78.947,157.895a7.4,7.4,0,1,0-7.4-7.4A7.4,7.4,0,0,0,120.888,365.132Zm39.474-39.474a7.4,7.4,0,1,0-7.4-7.4A7.4,7.4,0,0,0,160.362,325.658Z" transform="translate(619 217)" fill="rgba(255,255,255,0.1)"/></g></svg>